<svg xmlns="http://www.w3.org/2000/svg" viewBox="0 0 100 100">
  <defs>
    <radialGradient id="glow" cx="50%" cy="50%" r="50%" fx="50%" fy="50%">
      <stop offset="0%" stop-color="#00ffcc" stop-opacity="1" />
      <stop offset="100%" stop-color="#0066ff" stop-opacity="0" />
    </radialGradient>
    <filter id="blur" x="-20%" y="-20%" width="140%" height="140%">
      <feGaussianBlur stdDeviation="4" />
    </filter>
  </defs>
  <rect width="100" height="100" rx="20" fill="#0d1117" />
  
  <circle cx="50" cy="50" r="30" fill="url(#glow)" filter="url(#blur)" />
  
  <circle cx="50" cy="50" r="15" fill="#ffffff" />
  
  <!-- Cellular connections / Neural paths -->
  <path d="M50 35 L50 20 M65 50 L80 50 M50 65 L50 80 M35 50 L20 50" stroke="#00ffcc" stroke-width="4" stroke-linecap="round" />
  <path d="M60.6 39.4 L71.2 28.8 M60.6 60.6 L71.2 71.2 M39.4 60.6 L28.8 71.2 M39.4 39.4 L28.8 28.8" stroke="#00b3ff" stroke-width="3" stroke-linecap="round" />
  
  <!-- Small nodes at ends -->
  <circle cx="50" cy="20" r="4" fill="#ffffff" />
  <circle cx="80" cy="50" r="4" fill="#ffffff" />
  <circle cx="50" cy="80" r="4" fill="#ffffff" />
  <circle cx="20" cy="50" r="4" fill="#ffffff" />
  
  <circle cx="71.2" cy="28.8" r="3" fill="#00ffcc" />
  <circle cx="71.2" cy="71.2" r="3" fill="#00ffcc" />
  <circle cx="28.8" cy="71.2" r="3" fill="#00ffcc" />
  <circle cx="28.8" cy="28.8" r="3" fill="#00ffcc" />
</svg>
